HIERARCHY
ROOT Hips
{
  OFFSET 0 89.5177 0.535
  CHANNELS 6 Xposition Yposition Zposition Zrotation Xrotation Yrotation
  JOINT Spine
  {
    OFFSET 12.0259 -0.162855 1.69034e-005
    CHANNELS 3 Zrotation Xrotation Yrotation
    JOINT Spine1
    {
      OFFSET 15.3169 -0.0121922 0
      CHANNELS 3 Zrotation Xrotation Yrotation
      JOINT Spine2
      {
        OFFSET 15.3176 -0.0121908 0
        CHANNELS 3 Zrotation Xrotation Yrotation
        JOINT Neck
        {
          OFFSET 19.9142 1.56338 0
          CHANNELS 3 Zrotation Xrotation Yrotation
          JOINT Head
          {
            OFFSET 6.92651 0 0
            CHANNELS 3 Zrotation Xrotation Yrotation
            End Site
            {
              OFFSET 20.7666 0 0
            }
          }
          JOINT LeftShoulder
          {
            OFFSET -6.20654 0.708824 7.28219
            CHANNELS 3 Zrotation Xrotation Yrotation
            JOINT LeftArm
            {
              OFFSET 14.108 0 -1.52588e-005
              CHANNELS 3 Zrotation Xrotation Yrotation
              JOINT LeftForeArm
              {
                OFFSET 28.5802 0 0
                CHANNELS 3 Zrotation Xrotation Yrotation
                JOINT LeftHand
                {
                  OFFSET 27.092 0 0
                  CHANNELS 3 Zrotation Xrotation Yrotation
                  End Site
                  {
                    OFFSET 9.55928 -0.186424 0.145352
                  }
                }
              }
            }
          }
          JOINT RightShoulder
          {
            OFFSET -6.20654 0.708866 -7.28218
            CHANNELS 3 Zrotation Xrotation Yrotation
            JOINT RightArm
            {
              OFFSET 14.108 0 1.52588e-005
              CHANNELS 3 Zrotation Xrotation Yrotation
              JOINT RightForeArm
              {
                OFFSET 28.5802 0 0
                CHANNELS 3 Zrotation Xrotation Yrotation
                JOINT RightHand
                {
                  OFFSET 27.092 0 0
                  CHANNELS 3 Zrotation Xrotation Yrotation
                  End Site
                  {
                    OFFSET 9.55929 -0.186417 -0.145354
                  }
                }
              }
            }
          }
        }
      }
    }
  }
  JOINT LeftUpLeg
  {
    OFFSET 0.005 -0.535 8.837
    CHANNELS 3 Zrotation Xrotation Yrotation
    JOINT LeftLeg
    {
      OFFSET 39.9035 0 0
      CHANNELS 3 Zrotation Xrotation Yrotation
      JOINT LeftFoot
      {
        OFFSET 39.6689 0 0
        CHANNELS 3 Zrotation Xrotation Yrotation
        JOINT LeftToe
        {
          OFFSET 10.1624 13.6296 0
          CHANNELS 3 Zrotation Xrotation Yrotation
          End Site
          {
            OFFSET 8.38147 0 0
          }
        }
      }
    }
  }
  JOINT RightUpLeg
  {
    OFFSET 0.005 -0.535 -8.837
    CHANNELS 3 Zrotation Xrotation Yrotation
    JOINT RightLeg
    {
      OFFSET 39.9035 0 0
      CHANNELS 3 Zrotation Xrotation Yrotation
      JOINT RightFoot
      {
        OFFSET 39.6689 0 0
        CHANNELS 3 Zrotation Xrotation Yrotation
        JOINT RightToe
        {
          OFFSET 10.1624 13.6296 0
          CHANNELS 3 Zrotation Xrotation Yrotation
          End Site
          {
            OFFSET 8.38147 0 0
          }
        }
      }
    }
  }
}
MOTION
Frames:	14
Frame Time:	0.0333333
36.5193 90.2507 29.0323 -98.214 26.7213 -179.394 1.29021 -1.91815 1.9534 2.64731 -3.79021 3.95294 2.64731 -3.79021 3.95293 -8.30987e-012 -9.0191e-006 -5.27751e-005 4.56672 -3.74003 -0.104486 0.22782 -0.522809 -66.4625 -175.578 6.95486 -82.5993 -85.4834 0 3.18055e-015 -56.6616 -37.954 -56.284 -178.73 3.37272 69.3499 14.5626 11.5175 -57.8915 -27.5643 -1.27222e-014 -1.59028e-015 -27.491 42.2812 31.0933 -15.1859 10.0518 -163.026 -13.1256 6.36111e-015 1.59028e-015 1.09082 1.26927 -1.58565 90 -1.59028e-015 1.59028e-015 -12.7996 1.07716 179.295 -9.44139 3.18056e-015 -7.95139e-016 11.6562 -15.7137 16.7661 90 1.59028e-015 -1.59028e-015 
37.8696 90.0792 28.0221 -97.7444 26.4373 179.86 1.22154 -1.77897 1.90748 2.50345 -3.51539 3.85538 2.50344 -3.51539 3.85537 -8.30748e-012 -9.0191e-006 -5.27751e-005 3.37006 -3.87109 0.36035 -0.582175 1.45386 -68.1718 -170.043 2.74067 -80.8126 -80.7189 -3.18055e-015 -6.36111e-015 -56.3631 -40.2351 -57.6172 -178.475 4.06066 69.3977 10.2431 9.42255 -57.0357 -31.7849 0 -3.18055e-015 -27.0802 43.7288 30.6561 -15.7137 10.6158 -163.602 -17.2618 0 -6.36111e-015 4.79396 1.21899 -2.04803 90 1.59028e-015 -3.18055e-015 -10.7733 1.16692 178.724 -7.27096 -3.18056e-015 7.95139e-016 10.5526 -15.4662 17.2743 90 -1.59028e-015 1.59028e-015 
39.3915 89.8586 26.9128 -97.1463 25.981 178.951 1.15293 -1.64897 1.87507 2.36067 -3.2585 3.78543 2.36067 -3.2585 3.78542 -8.30748e-012 -9.0191e-006 -5.27751e-005 2.10756 -4.75242 0.892442 -1.35618 3.58091 -69.2408 -165.565 -1.18163 -78.0258 -76.5341 0 9.54166e-015 -55.3923 -42.4065 -57.6348 -178.373 4.33224 69.3951 7.9014 7.99069 -56.0277 -35.903 -6.36111e-015 -0 -28.2268 45.2003 31.8453 -14.1989 11.7967 -164.505 -16.6764 1.59028e-015 4.77083e-015 7.40919 0.193712 -0.698999 90 -3.18055e-015 1.59028e-015 -7.23886 1.20385 178.119 -2.55375 3.18056e-015 -0 8.2088 -15.0339 17.768 90 1.59028e-015 -0 
40.9098 89.677 25.7334 -96.7023 25.1352 178.393 1.09085 -1.6118 1.70015 2.23038 -3.18974 3.43286 2.23038 -3.18974 3.43285 -8.30987e-012 -9.0191e-006 -5.27751e-005 0.774169 -6.43738 2.01191 -2.04661 5.50841 -69.5804 -163.01 -4.92393 -75.0059 -73.3664 -6.36111e-015 3.18055e-015 -54.1385 -43.1475 -56.3756 -178.312 4.39363 68.96 6.65041 7.6856 -55.0142 -38.8882 3.18055e-015 6.36111e-015 -30.1403 46.192 33.7488 -12.5294 12.4412 -164.962 -15.2353 0 -0 8.34051 1.83738 -2.53592 90 0 -1.59028e-015 -6.31724 1.69135 177.408 -2.97706 -3.18056e-015 -1.59028e-015 7.9151 -14.0694 16.5576 90 -1.59028e-015 -0 
42.3606 89.6156 24.4341 -96.2838 23.5937 178.831 1.04223 -1.51031 1.31892 2.12006 -2.99548 2.66664 2.12006 -2.99548 2.66663 -8.30828e-012 -9.0191e-006 -5.27751e-005 -0.833908 -10.2968 3.19337 -2.46582 6.51146 -69.2058 -161.168 -7.39351 -72.3434 -70.4592 0 3.18055e-015 -54.3994 -43.3907 -57.1679 -178.125 4.78886 68.5921 7.15804 8.4013 -54.5339 -41.0112 -6.36111e-015 6.36111e-015 -32.1087 46.483 35.7027 -11.3729 13.974 -166.441 -13.8514 -3.18055e-015 -0 7.66352 4.8114 -5.48757 90 7.95139e-016 -4.77083e-015 -5.94747 1.5191 175.704 -4.51281 -6.36111e-015 1.59028e-015 7.75911 -13.0711 15.2911 90 7.95139e-016 -0 
43.7848 89.5418 23.087 -95.8545 21.2105 179.532 1.02115 -1.47029 0.85247 2.06509 -2.9245 1.73203 2.06509 -2.9245 1.73202 -8.31066e-012 -9.0191e-006 -5.27751e-005 -2.73649 -15.6288 4.29407 -2.60027 6.63976 -68.556 -160.319 -9.25393 -70.9706 -68.625 6.36111e-015 3.18055e-015 -54.1674 -44.0275 -57.4528 -178.124 4.75635 68.4417 9.39303 8.9424 -54.8339 -42.8485 -3.18055e-015 3.18055e-015 -34.2217 46.7618 38.0552 -10.0522 12.7576 -168.855 -13.651 -2.38542e-015 -1.59028e-015 8.86844 5.44037 -6.17061 90 0 -1.59028e-015 -6.6343 1.49563 173.842 -8.55379 3.18056e-015 -0 8.25792 -11.301 13.1001 90 -7.95139e-016 -0 
45.143 89.4425 21.8279 -95.6339 18.8773 179.896 1.01394 -1.3492 0.521232 2.04096 -2.68842 1.06687 2.04096 -2.68842 1.06686 -8.30748e-012 -9.0191e-006 -5.27751e-005 -4.3505 -20.9595 4.34286 -2.52041 6.25979 -68.0156 -160.058 -10.1233 -71.1134 -67.5733 0 -9.54166e-015 -53.7791 -44.0704 -56.9546 -178.185 4.61962 68.5281 11.9773 9.21729 -55.3612 -44.5202 6.36111e-015 -0 -35.4083 47.4717 39.6683 -9.14575 12.0058 -170.602 -13.4169 1.59028e-015 1.59028e-015 10.2399 6.35682 -7.239 90 -4.96962e-017 -0 -8.20874 1.12026 172.605 -13.6838 3.18056e-015 -0 7.94933 -9.1347 10.4741 90 -3.97569e-016 3.18055e-015 
46.5159 89.5172 20.8681 -94.9846 16.5924 179.363 1.09767 -1.27478 0.419691 2.20548 -2.54078 0.864214 2.20548 -2.54078 0.864205 -8.31046e-012 -9.0191e-006 -5.27751e-005 -5.50925 -24.9805 3.60017 -2.55715 6.38452 -68.118 -160.156 -10.2134 -72.84 -66.6436 0 -3.18055e-015 -52.8408 -43.7131 -55.2561 -178.246 4.39092 68.2004 13.0336 8.87415 -54.8019 -45.6755 -6.36111e-015 -0 -37.1117 49.2799 41.9586 -7.97816 10.9733 -171.249 -13.3084 7.95139e-016 2.38542e-015 11.3676 7.33712 -8.39253 90 3.97569e-016 1.59028e-015 -10.259 -0.0252669 172.289 -20.3588 6.36111e-015 -0 7.18604 -6.19482 7.6124 90 0 1.59028e-015 
47.8447 89.7577 20.0786 -94.5567 14.1767 178.558 1.16088 -1.2377 0.44633 2.33219 -2.46559 0.918131 2.33219 -2.46559 0.918122 -8.30589e-012 -9.0191e-006 -5.27751e-005 -6.37244 -28.1302 2.65858 -2.48718 6.29288 -68.3818 -161.407 -9.43579 -75.1285 -65.6392 -3.18055e-015 -3.18055e-015 -51.4416 -43.0598 -53.2567 -178.188 4.47508 67.9344 13.3891 8.89334 -54.4621 -45.9821 0 -1.59028e-014 -37.4187 50.2116 42.464 -6.30455 9.24006 -171.681 -11.8439 3.97569e-016 -7.95139e-016 11.5045 7.61254 -8.72514 90 3.97569e-016 3.18055e-015 -12.8462 -1.45022 172.336 -27.7209 -3.18056e-015 -3.97569e-016 7.15144 -3.29435 5.33679 90 -4.96962e-016 -0 
49.0918 90.0054 19.5774 -94.5497 11.979 177.8 1.14424 -1.29428 0.420514 2.29883 -2.5794 0.867289 2.29883 -2.5794 0.86728 -8.30758e-012 -9.0191e-006 -5.27751e-005 -6.53853 -29.9895 2.65642 -2.52105 6.26025 -68.0123 -163.707 -8.45915 -77.2488 -64.9061 3.18055e-015 -1.59028e-015 -50.5714 -42.4507 -51.9903 -178.206 4.3341 67.4906 13.3725 8.56663 -54.4782 -46.4886 0 -0 -36.57 50.2602 41.4448 -4.78018 8.00643 -171.681 -9.78944 3.97569e-016 1.59028e-015 11.4243 8.22628 -9.45905 90 -7.95139e-016 -0 -15.3096 -2.25953 172.761 -33.1928 -6.36111e-015 -1.59028e-015 5.6353 -2.37657 4.59973 90 -2.48481e-016 3.18055e-015 
50.3311 90.1811 19.2335 -94.711 10.0716 177.284 1.09232 -1.39361 0.342664 2.19394 -2.77994 0.712321 2.19394 -2.77994 0.712312 -8.3069e-012 -9.0191e-006 -5.27751e-005 -6.55482 -31.3725 3.00439 -2.48094 6.00916 -67.5159 -166.663 -7.6609 -79.3133 -65.2212 3.18055e-015 -4.77083e-015 -50.85 -42.2173 -52.3385 -178.114 4.46555 67.0819 12.7129 7.93697 -54.7631 -47.6422 1.59028e-015 -0 -35.9038 49.6354 40.3171 -3.35251 7.21759 -171.647 -7.7234 -3.97569e-016 -7.95139e-016 11.3893 8.95029 -10.3299 90 0 1.59028e-015 -16.397 -2.94323 173.073 -33.8913 3.18056e-015 1.98785e-015 3.2825 -7.56085 7.71922 90 7.95139e-016 -3.18055e-015 
51.5808 90.2591 19.0246 -95.013 8.55315 176.787 1.08598 -1.44042 0.348608 2.18175 -2.87346 0.724971 2.18175 -2.87346 0.724962 -8.30872e-012 -9.0191e-006 -5.27751e-005 -6.9867 -32.7076 3.39076 -2.22832 5.31468 -67.2124 -170.514 -6.45794 -80.9513 -65.9364 0 -3.18055e-015 -51.0349 -42.1528 -52.3865 -177.956 4.80128 66.909 11.5296 7.30291 -54.8357 -49.7436 0 -0 -35.6683 49.6776 39.88 -2.14432 6.56338 -171.468 -5.99332 -7.95139e-016 -2.38542e-015 11.459 9.43226 -10.9241 90 -7.95139e-016 1.59028e-015 -17.6825 -3.25687 173.38 -33.7611 0 -7.95139e-016 5.38891 -13.3768 13.128 90 1.59028e-015 -1.19271e-015 
52.796 90.2633 18.9269 -95.3754 7.5513 176.385 1.07931 -1.50044 0.343138 2.16871 -2.99364 0.715021 2.16871 -2.99364 0.715012 -8.30723e-012 -9.0191e-006 -5.27751e-005 -7.67489 -33.6165 3.60034 -2.12367 4.96384 -66.8013 -174.543 -5.26007 -82.1851 -66.7485 0 3.18055e-015 -51.3919 -41.9725 -52.6487 -177.918 4.84709 66.7213 10.6635 6.64038 -54.8897 -52.6075 -6.36111e-015 -1.59028e-014 -35.2895 49.9468 39.3876 -1.02291 5.99455 -171.278 -4.48841 -5.96354e-016 -7.95139e-016 11.5169 9.58984 -11.1276 90 7.95139e-016 1.59028e-015 -18.9256 -3.13238 173.723 -31.4626 -1.59028e-015 -0 5.69751 -15.9693 17.5679 90 4.77083e-015 -0 
54.0492 90.22 18.9106 -95.6802 7.04234 176.2 1.1153 -1.50031 0.334675 2.2405 -2.99331 0.699025 2.2405 -2.99331 0.699016 -8.30669e-012 -9.0191e-006 -5.27751e-005 -9.11107 -34.299 3.4445 -1.92258 4.44062 -66.5602 -178.774 -3.9912 -83.0655 -67.5764 6.36111e-015 -1.19271e-015 -51.9917 -41.1569 -52.7525 -177.916 4.83506 66.6453 10.0627 6.24501 -54.8946 -56.0062 -3.97569e-015 3.18055e-015 -35.4764 49.172 38.9128 0.351611 5.77882 -171.271 -2.79366 5.96354e-016 -0 11.4306 9.56453 -11.0989 90 0 3.18055e-015 -19.8215 -2.86101 174.292 -27.6174 1.59028e-015 1.59028e-015 4.09049 -14.3929 16.6856 90 1.59028e-015 -0 
